HIERARCHY
ROOT Hips
{
	OFFSET -0.001795 -0.223333 0.028219
	CHANNELS 6 Xposition Yposition Zposition Zrotation Yrotation Xrotation 
	JOINT LeftUpLeg
	{
		OFFSET 0.069520 -0.091406 -0.006815
		CHANNELS 3 Zrotation Yrotation Xrotation
		JOINT LeftLeg
		{
			OFFSET 0.034277 -0.375199 -0.004496
			CHANNELS 3 Zrotation Yrotation Xrotation
			JOINT LeftFoot
			{
				OFFSET -0.013596 -0.397961 -0.043693
				CHANNELS 3 Zrotation Yrotation Xrotation
				JOINT LeftToe
				{
					OFFSET 0.026358 -0.055791 0.119288
					CHANNELS 3 Zrotation Yrotation Xrotation
					End Site
					{
						OFFSET 0.000000 0.000000 0.000000
					}
				}
			}
		}
	}
	JOINT RightUpLeg
	{
		OFFSET -0.067670 -0.090522 -0.004320
		CHANNELS 3 Zrotation Yrotation Xrotation
		JOINT RightLeg
		{
			OFFSET -0.038290 -0.382569 -0.008850
			CHANNELS 3 Zrotation Yrotation Xrotation
			JOINT RightFoot
			{
				OFFSET 0.015774 -0.398415 -0.042312
				CHANNELS 3 Zrotation Yrotation Xrotation
				JOINT RightToe
				{
					OFFSET -0.025372 -0.048144 0.123348
					CHANNELS 3 Zrotation Yrotation Xrotation
					End Site
					{
						OFFSET 0.000000 0.000000 0.000000
					}
				}
			}
		}
	}
	JOINT Spine
	{
		OFFSET -0.002533 0.108963 -0.026696
		CHANNELS 3 Zrotation Yrotation Xrotation
		JOINT Spine1
		{
			OFFSET 0.005487 0.135180 0.001092
			CHANNELS 3 Zrotation Yrotation Xrotation
			JOINT Spine2
			{
				OFFSET 0.001457 0.052922 0.025425
				CHANNELS 3 Zrotation Yrotation Xrotation
				JOINT Neck
				{
					OFFSET -0.002778 0.213870 -0.042857
					CHANNELS 3 Zrotation Yrotation Xrotation
					JOINT Head
					{
						OFFSET 0.005152 0.064970 0.051349
						CHANNELS 3 Zrotation Yrotation Xrotation
						End Site
						{
							OFFSET 0.000000 0.000000 0.000000
						}
					}
				}
				JOINT LeftShoulder
				{
					OFFSET 0.078845 0.121749 -0.034090
					CHANNELS 3 Zrotation Yrotation Xrotation
					JOINT LeftArm
					{
						OFFSET 0.090977 0.030469 -0.008868
						CHANNELS 3 Zrotation Yrotation Xrotation
						JOINT LeftForeArm
						{
							OFFSET 0.259612 -0.012772 -0.027456
							CHANNELS 3 Zrotation Yrotation Xrotation
							JOINT LeftHand
							{
								OFFSET 0.249234 0.008986 -0.001171
								CHANNELS 3 Zrotation Yrotation Xrotation
								End Site
								{
									OFFSET 0.000000 0.000000 0.000000
								}
							}
						}
					}
				}
				JOINT RightShoulder
				{
					OFFSET -0.081759 0.118833 -0.038615
					CHANNELS 3 Zrotation Yrotation Xrotation
					JOINT RightArm
					{
						OFFSET -0.096012 0.032551 -0.009143
						CHANNELS 3 Zrotation Yrotation Xrotation
						JOINT RightForeArm
						{
							OFFSET -0.253742 -0.013329 -0.021401
							CHANNELS 3 Zrotation Yrotation Xrotation
							JOINT RightHand
							{
								OFFSET -0.255298 0.007772 -0.005559
								CHANNELS 3 Zrotation Yrotation Xrotation
								End Site
								{
									OFFSET 0.000000 0.000000 0.000000
								}
							}
						}
					}
				}
			}
		}
	}
}
MOTION
Frames: 16
Frame Time: 0.050000
0.000000 0.945966 0.000000 -1.923077 4.990407 0.567254 -1.490288 -0.932273 -9.154333 -0.277206 -0.462545 12.064480 0.511568 1.543045 0.905247 0.000000 0.000000 0.000000 -0.769183 1.317980 -14.646929 3.679064 -0.830689 32.272732 -4.110822 -10.828904 2.613031 0.000000 0.000000 0.000000 0.490423 -0.165518 3.489858 -0.880383 0.488855 -2.002089 0.130309 1.582450 5.754395 6.368675 -1.092019 -24.494111 0.000000 0.000000 0.000000 -20.580091 -1.193327 -2.499716 -50.287303 -8.487249 -2.314495 -103.395367 -68.962901 84.435718 0.000000 0.000000 0.000000 20.899794 0.204099 -0.605464 56.035325 11.114497 -0.625389 85.016586 76.271360 77.611954 0.000000 0.000000 0.000000 
0.001587 0.944043 0.008476 -2.783481 8.284839 0.855860 -0.352834 -0.911666 -9.605911 -0.519592 -0.487448 12.239533 0.055643 -0.661739 -1.292928 0.000000 0.000000 0.000000 -1.413978 1.258769 -15.709552 4.870523 -1.998450 35.141372 -4.802091 -12.382191 2.995778 0.000000 0.000000 0.000000 0.152894 -0.181751 4.070536 0.033216 0.196193 -4.093250 -0.389893 3.826329 7.159195 8.013925 -1.285170 -25.594580 0.000000 0.000000 0.000000 -20.710070 0.278846 -4.451025 -47.868084 -3.897042 -3.778194 -103.479092 -63.862644 76.835560 0.000000 0.000000 0.000000 19.323284 -1.127125 -0.138702 57.783225 19.233592 3.311440 103.816898 78.467291 102.110936 0.000000 0.000000 0.000000 
0.001102 0.946568 0.015872 -3.005748 8.755253 1.229080 0.072876 -0.835577 -9.103282 0.172657 -0.618058 11.985513 -0.325357 -1.233206 -0.867134 0.000000 0.000000 0.000000 -1.571837 1.381925 -18.174661 3.562757 -1.621158 37.921195 -4.170830 -10.793793 2.159319 0.000000 0.000000 0.000000 0.036329 -0.149028 3.457808 -0.265093 0.353473 -4.639855 0.029069 6.819277 7.993909 6.582952 -0.382007 -23.946304 0.000000 0.000000 0.000000 -19.125829 1.582453 -5.525721 -47.942434 3.336420 -6.580296 -99.571110 -62.229950 69.755857 0.000000 0.000000 0.000000 15.782794 3.288128 2.821408 56.087194 30.637777 9.224434 -165.198252 81.870817 -150.124474 0.000000 0.000000 0.000000 
-0.000610 0.948231 0.023035 -3.151184 9.469352 2.075837 -0.359077 -0.892529 -9.451581 1.306638 -0.803383 11.262751 -1.245806 -3.961014 -1.863309 0.000000 0.000000 0.000000 -2.025273 1.353777 -19.368107 2.163044 -0.806591 32.893742 -4.856264 -12.045276 -1.614634 0.000000 0.000000 0.000000 0.919668 -0.143742 2.593945 -1.411829 0.861266 -5.065572 -0.148721 10.636449 7.439762 8.910624 -1.092054 -23.869971 0.000000 0.000000 0.000000 -19.209128 1.704921 -6.706691 -45.282653 10.017221 -8.273534 -96.600040 -62.666305 65.871768 0.000000 0.000000 0.000000 12.271439 4.995272 4.087943 55.788679 44.602594 17.839638 -121.809876 69.634287 -86.731126 0.000000 0.000000 0.000000 
-0.003674 0.950425 0.030341 -2.973023 10.019414 2.825319 -0.260519 -0.875212 -9.345158 1.503159 -0.777210 10.318354 -1.706375 -4.313742 -0.916846 0.000000 0.000000 0.000000 -2.125520 1.333333 -19.616045 0.336229 0.094460 26.003593 -5.475068 -13.765380 1.046926 0.000000 0.000000 0.000000 1.445147 -0.159956 2.443037 -1.734694 1.023368 -5.863288 -1.824210 14.982138 7.161386 12.109803 -1.977449 -25.004367 0.000000 0.000000 0.000000 -17.975775 0.641407 -7.016685 -44.175313 15.782359 -9.953209 -92.003899 -65.519644 63.019108 0.000000 0.000000 0.000000 7.446936 7.146740 4.860019 45.731745 61.125135 24.109529 -96.411900 48.798110 -39.515138 0.000000 0.000000 0.000000 
-0.007819 0.952277 0.038085 -2.105588 12.395768 4.294965 -0.926635 -0.990469 -10.132963 1.536892 -0.775845 9.915818 -3.239407 -6.164960 1.062355 0.000000 0.000000 0.000000 -2.239528 1.225576 -19.389233 -1.273215 0.544097 20.248316 -5.336692 -13.437027 0.511107 0.000000 0.000000 0.000000 1.392919 -0.152496 2.209062 -2.807203 1.496897 -6.745272 -3.511377 16.139868 6.407970 14.961253 -3.403811 -24.273473 0.000000 0.000000 0.000000 -17.074347 0.740451 -7.332632 -42.534351 19.826863 -10.952622 -84.835004 -70.070934 60.751892 0.000000 0.000000 0.000000 0.764111 10.137441 4.726157 20.300734 68.244612 13.455361 -84.491403 24.432793 -11.996749 0.000000 0.000000 0.000000 
-0.012670 0.953364 0.046435 -1.639545 14.339593 4.908960 -1.032449 -1.031019 -10.438258 1.752493 -0.801074 9.546706 -4.448107 -8.307847 1.596759 0.000000 0.000000 0.000000 -3.200239 0.964869 -18.367685 -1.117190 0.432318 15.759173 -6.065498 -15.036147 3.236862 0.000000 0.000000 0.000000 2.008329 -0.171281 2.004953 -4.135868 2.042734 -7.907507 -4.320611 17.855214 7.167189 16.948029 -3.903931 -25.297134 0.000000 0.000000 0.000000 -14.745169 1.246571 -7.258407 -43.111355 21.279700 -11.925915 -93.996721 -72.470190 70.333777 0.000000 0.000000 0.000000 -7.067908 11.219671 2.921377 -3.581408 67.842873 0.744910 -72.636196 3.590262 3.921538 0.000000 0.000000 0.000000 
-0.018550 0.953760 0.056138 -0.978612 16.575458 5.175240 -1.203069 -1.021344 -10.295266 1.817532 -0.776938 8.942197 -5.857483 -10.085437 2.930082 0.000000 0.000000 0.000000 -3.791804 0.752240 -16.669687 -1.759488 0.530037 13.378003 -7.174508 -17.222720 5.331219 0.000000 0.000000 0.000000 2.662614 -0.192056 1.834112 -5.450963 2.549525 -8.460957 -5.187811 18.731835 7.885805 19.060537 -4.780934 -25.613583 0.000000 0.000000 0.000000 -12.547107 1.616945 -6.888290 -44.074413 20.549814 -12.266546 -109.587938 -74.821685 87.024573 0.000000 0.000000 0.000000 -13.804284 12.901676 1.364575 -13.516896 60.266833 -2.963361 -59.098887 -5.995032 7.811225 0.000000 0.000000 0.000000 
-0.025386 0.954071 0.066577 -0.619270 17.382362 4.931288 -1.643112 -1.001866 -9.970058 2.184711 -0.927366 9.840058 -5.856808 -10.502988 2.441315 0.000000 0.000000 0.000000 -3.950573 0.685663 -16.406959 -1.456902 0.422823 14.238991 -6.965837 -16.652939 5.704809 0.000000 0.000000 0.000000 3.341351 -0.204993 1.613324 -6.228308 2.836800 -8.588475 -5.708756 20.144997 8.281496 20.160203 -4.879641 -26.631136 0.000000 0.000000 0.000000 -12.594946 2.717553 -7.770483 -42.992832 19.684257 -11.525643 -125.843352 -73.958846 103.054316 0.000000 0.000000 0.000000 -19.679718 13.665963 -0.365732 -11.752266 55.354983 -0.700482 -45.352049 -9.498914 7.054893 0.000000 0.000000 0.000000 
-0.033053 0.952876 0.077579 -0.668492 16.820545 4.695986 -1.307209 -0.963900 -9.758661 2.447839 -1.035474 10.515361 -5.794858 -10.838919 1.964816 0.000000 0.000000 0.000000 -3.651245 0.742826 -16.265010 -1.664458 0.488185 14.741563 -7.370511 -17.419815 6.693296 0.000000 0.000000 0.000000 3.871750 -0.214202 1.445163 -6.926985 3.083006 -8.415176 -6.072252 20.992228 7.431360 20.122090 -4.510277 -27.354127 0.000000 0.000000 0.000000 -11.514165 4.404683 -7.947603 -44.073695 18.667079 -11.694437 -138.837491 -71.921090 115.967328 0.000000 0.000000 0.000000 -21.983800 14.814522 -0.738367 -7.949703 50.294746 0.850996 -35.307193 -3.472081 3.464312 0.000000 0.000000 0.000000 
-0.041528 0.951438 0.089342 -0.875544 15.545296 4.463415 -0.514782 -0.892942 -9.408454 2.433447 -1.123598 11.558946 -4.715907 -10.309090 0.015539 0.000000 0.000000 0.000000 -2.491351 0.982978 -17.053267 -2.096701 0.641639 16.579082 -6.772714 -16.227259 6.736642 0.000000 0.000000 0.000000 3.490106 -0.200505 1.539377 -6.791981 3.042010 -7.489727 -6.578519 20.992734 6.215626 20.342877 -4.846337 -26.923372 0.000000 0.000000 0.000000 -12.174284 4.338542 -8.114255 -44.774178 18.036465 -11.560604 -145.280400 -70.890539 123.650383 0.000000 0.000000 0.000000 -20.202429 13.698091 -0.388455 -5.541770 48.523592 1.133884 -32.838353 3.513391 1.392273 0.000000 0.000000 0.000000 
-0.050515 0.950151 0.102256 -1.189573 12.763797 4.076677 0.332382 -0.841071 -9.219235 2.167558 -1.265700 13.974350 -3.489385 -8.452968 -1.032555 0.000000 0.000000 0.000000 -1.581572 1.222193 -17.425674 -1.600683 0.617659 18.535911 -6.234246 -15.361428 5.663903 0.000000 0.000000 0.000000 3.461381 -0.199911 1.617310 -6.641116 2.973347 -7.215028 -6.926402 21.319993 4.256570 18.622119 -3.923483 -27.051275 0.000000 0.000000 0.000000 -12.425484 3.891013 -7.786891 -46.518193 16.909074 -11.620605 -148.664514 -69.320683 127.265374 0.000000 0.000000 0.000000 -14.234057 13.229566 1.433816 -1.605836 47.658303 1.301479 -36.317460 11.333505 -0.434789 0.000000 0.000000 0.000000 
-0.059704 0.948741 0.116273 -1.273124 9.690417 3.659745 1.182107 -0.753671 -8.695232 1.526576 -1.226852 15.947228 -2.191705 -5.766138 -1.419582 0.000000 0.000000 0.000000 -0.765039 1.403975 -17.057261 -1.093221 0.621340 19.066391 -5.387590 -13.687319 3.702956 0.000000 0.000000 0.000000 3.427718 -0.174988 1.374333 -5.891969 2.682644 -5.975498 -7.445371 18.770534 2.598757 16.427721 -3.474413 -25.922743 0.000000 0.000000 0.000000 -13.768029 4.126829 -7.732328 -48.550843 14.601676 -11.121660 -152.743295 -67.289500 133.050345 0.000000 0.000000 0.000000 -8.190138 12.290846 3.112121 4.041549 48.978137 2.110356 -43.808922 19.829193 -3.426541 0.000000 0.000000 0.000000 
-0.068885 0.948564 0.131356 -1.571889 6.425576 3.042079 2.723689 -0.673713 -8.636603 0.027894 -0.943213 18.763521 -0.958792 -3.625764 -2.473897 0.000000 0.000000 0.000000 0.038473 1.549075 -16.552821 0.158714 0.435873 20.700072 -4.501772 -11.694743 2.560437 0.000000 0.000000 0.000000 3.125455 -0.114538 0.759388 -5.050303 2.332525 -4.842633 -6.819995 15.044625 0.826363 14.361788 -3.576605 -23.546649 0.000000 0.000000 0.000000 -15.283757 1.713580 -6.252040 -50.516390 6.911751 -8.135545 -163.650921 -68.661622 151.341796 0.000000 0.000000 0.000000 1.545657 11.192956 5.176246 12.152309 48.904332 3.473781 -50.496392 35.542065 -11.181796 0.000000 0.000000 0.000000 
-0.077040 0.947473 0.146021 -1.711726 3.192838 2.789110 4.392638 -0.636448 -9.778935 -1.793743 -0.433643 22.507407 0.199440 -0.464905 -1.720473 0.000000 0.000000 0.000000 0.612734 1.573646 -15.446231 0.880474 0.398431 20.542246 -3.471260 -8.854348 0.250200 0.000000 0.000000 0.000000 2.102797 -0.048779 0.162604 -2.735365 1.327989 -4.228207 -5.920230 9.484226 0.072894 12.058221 -3.760017 -20.711603 0.000000 0.000000 0.000000 -17.761544 -1.200161 -4.111409 -49.285487 -5.505051 -2.710852 165.703975 -71.630008 -161.514261 0.000000 0.000000 0.000000 9.143102 9.724515 5.229534 27.250199 43.490596 6.742932 -54.449950 55.802161 -23.696217 0.000000 0.000000 0.000000 
-0.082710 0.947008 0.159769 -2.563977 0.472911 3.004262 6.528071 -0.520220 -11.302137 -2.803175 0.026337 25.577071 1.329335 2.340929 -1.173360 0.000000 0.000000 0.000000 1.965605 1.672193 -14.728270 1.049004 0.489580 20.262206 -2.646887 -6.622629 -0.294537 0.000000 0.000000 0.000000 1.750645 0.016478 -0.891073 -0.410641 0.285116 -3.713005 -4.079906 1.683049 0.063384 7.474020 -2.305030 -20.068987 0.000000 0.000000 0.000000 -18.853326 -3.740359 -0.738100 -44.504869 -21.558963 3.089731 122.736055 -67.445726 -97.978291 0.000000 0.000000 0.000000 13.807173 8.279119 3.252523 42.253847 31.180724 6.901714 -36.851131 78.128438 -25.632588 0.000000 0.000000 0.000000 
